# xmcd
#
# Track frame offsets: 
#        150
#        19735
#        38259
#        56628
#        75401
#        97482
#        119937
#        136328
#        147057
#        167319
#        178078
#
# Disc length: 2623 seconds
#
# Revision: 0
# Processed by: cddbd v1.5.2PL0 Copyright (c) Steve Scherf et al.
# Submitted via: ExactAudioCopy v0.99pb4
#
DISCID=8f0a3d0b
DTITLE=Whiskeytown - Forever Valentine (bootleg)
DYEAR=1997
DGENRE=Alt. Rock
TTITLE0=Anyone But Me (aka Dial Tone)
TTITLE1=Don't Wanna Know Why
TTITLE2=Easy Hearts
TTITLE3=Sittin' Around
TTITLE4=Rays of Light
TTITLE5=Ghost Without Memory
TTITLE6=Runnin' Out Of Road
TTITLE7=Can't Take A Lover  (aka Talkin' In My Sleep)
TTITLE8=Think About Me (aka (What You) Think About Me)
TTITLE9=Crazy Lonesome  (aka A Memory Away)
TTITLE10=Caroline
EXTD=
EXTT0=
EXTT1=
EXTT2=
EXTT3=
EXTT4=
EXTT5=
EXTT6=
EXTT7=
EXTT8=
EXTT9=
EXTT10=
PLAYORDER=
